<svg width="26" height="26" viewBox="0 0 26 26" fill="none" xmlns="http://www.w3.org/2000/svg">
<g clip-path="url(#clip0_1_138)">
<rect width="26" height="26" fill="#09B3B0"/>
<path d="M25.4583 7.04929C25.3111 6.52413 25.0243 6.04867 24.6285 5.67346C24.2215 5.28671 23.7226 5.01006 23.179 4.86962C21.1445 4.33337 12.9935 4.33338 12.9935 4.33338C9.59544 4.29471 6.19821 4.46476 2.821 4.84254C2.27737 4.99336 1.77944 5.27619 1.3715 5.66588C0.970664 6.05154 0.680331 6.52713 0.528664 7.04821C0.164331 9.01093 -0.0126864 11.0038 -2.77144e-06 13C-0.0130028 14.9945 0.163581 16.9867 0.528664 18.9519C0.677081 19.4708 0.966331 19.9442 1.36825 20.3266C1.77016 20.709 2.27066 20.9853 2.821 21.1315C4.88258 21.6667 12.9935 21.6667 12.9935 21.6667C16.3959 21.7054 19.7974 21.5354 23.179 21.1575C23.7226 21.0171 24.2215 20.7405 24.6285 20.3537C25.0293 19.9713 25.3143 19.4957 25.4573 18.9779C25.8311 17.0159 26.0129 15.0222 26 13.025C26.0281 11.0193 25.8466 9.01615 25.4583 7.04821V7.04929ZM10.4022 16.7094V9.29179L17.1838 13.0011L10.4022 16.7094Z" fill="#F8F8F8"/>
</g>
<defs>
<clipPath id="clip0_1_138">
<rect width="26" height="26" fill="white"/>
</clipPath>
</defs>
</svg>
